# xmcd CD database file
#
# Track frame offsets:
#	150
#	10252
#	20715
#	30419
#	43365
#	55550
#	68376
#	82579
#	95876
#	107986
#	117955
#	130620
#	140413
#	150694
#	166283
#	178240
#	188509
#	199337
#	208191
#	222328
#
# Disc length: 3212 seconds
#
# Revision: 0
# Processed by: cddbd v1.5.2PL0 Copyright (c) Steve Scherf et al.
# Submitted via: CDex 1.51
#
DISCID=150c8a14
DTITLE=Various Artist - Ultimate Country Box - Disc 4
DYEAR=1999
DGENRE=Country
TTITLE0=Don Gibson -  Lonesome Number One
TTITLE1=George Hamilton IV - Abilene
TTITLE2=Dave Dudley - Six Days On The Road
TTITLE3=Faron Young - It's Four In The Morning
TTITLE4=Johnny Paycheck - Take This Job And Shove It
TTITLE5=Claude King - Wolverton Mountain
TTITLE6=B. J. Thomas - I'm So Lonesome I Could Cry
TTITLE7=Unknown - Dream Baby
TTITLE8=Red Steagall - Truck Drivin' Man
TTITLE9=Hank Locklin - Please Help Me I'm Falling
TTITLE10=Unknown - Carroll County Accident
TTITLE11=Denis Olson - Truck Drivin' Outlaw
TTITLE12=Warner Mack - The Bridge Washed Out
TTITLE13=Unknown - Hello I'm A Truck
TTITLE14=Del Reeves - The Girl On The Billboard
TTITLE15=Unknown - Unknown
TTITLE16=Unknown - World's Greatest Mom
TTITLE17=Bob Luman - Let's Think About Living
TTITLE18=Frank Sinatra - By The Time I get To Phoenix
TTITLE19=Brian Cadd - Ginger Man
EXTD=YEAR: 1999
EXTT0=
EXTT1=
EXTT2=
EXTT3=
EXTT4=
EXTT5=
EXTT6=
EXTT7=
EXTT8=
EXTT9=
EXTT10=
EXTT11=
EXTT12=
EXTT13=
EXTT14=
EXTT15=
EXTT16=
EXTT17=
EXTT18=
EXTT19=
PLAYORDER=
